<?xml version="1.0" encoding="utf-8"?>
<!-- Generator: Adobe Illustrator 15.1.0, SVG Export Plug-In . SVG Version: 6.00 Build 0)  -->
<!DOCTYPE svg PUBLIC "-//W3C//DTD SVG 1.1//EN" "http://www.w3.org/Graphics/SVG/1.1/DTD/svg11.dtd">
<svg version="1.1" id="Layer_1" xmlns="http://www.w3.org/2000/svg" xmlns:xlink="http://www.w3.org/1999/xlink" x="0px" y="0px"
	 width="800px" height="600px" viewBox="0 0 800 600" enable-background="new 0 0 800 600" xml:space="preserve">
<title>Facebook icon</title>
<path fill="#323957" d="M666.9,0H133.1C114.825,0,100,14.825,100,33.1v533.8c0,18.3,14.825,33.1,33.1,33.1h287.35V367.65h-78.225
	v-90.525h78.225V210.25c0-77.475,47.35-119.625,116.475-119.625c33.125,0,61.602,2.425,69.9,3.525v81H558.8
	c-37.5,0-44.8,18.025-44.8,44.275V277.2h89.6l-11.625,90.75H514V600h152.875C685.2,600,700,585.2,700,566.9V33.1
	C700,14.825,685.2,0,666.9,0"/>
</svg>
