<?xml version="1.0" encoding="utf-8"?>
<!-- Generator: Adobe Illustrator 15.1.0, SVG Export Plug-In . SVG Version: 6.00 Build 0)  -->
<!DOCTYPE svg PUBLIC "-//W3C//DTD SVG 1.1//EN" "http://www.w3.org/Graphics/SVG/1.1/DTD/svg11.dtd">
<svg version="1.1" id="Layer_1" xmlns="http://www.w3.org/2000/svg" xmlns:xlink="http://www.w3.org/1999/xlink" x="0px" y="0px"
	 width="800px" height="600px" viewBox="0 0 800 600" enable-background="new 0 0 800 600" xml:space="preserve">
<title>LinkedIn icon</title>
<path fill="#333333" d="M611.175,511.3h-88.85V372.075c0-33.2-0.675-75.925-46.3-75.925c-46.325,0-53.4,36.125-53.4,73.475V511.3
	h-88.85V225h85.35v39.025h1.15c11.925-22.5,40.925-46.25,84.25-46.25c90.024,0,106.675,59.25,106.675,136.375V511.3H611.175z
	 M233.425,185.825c-28.6,0-51.575-23.15-51.575-51.625c0-28.45,23-51.575,51.575-51.575c28.5,0,51.6,23.125,51.6,51.575
	C285.025,162.675,261.9,185.825,233.425,185.825z M277.975,511.3h-89.1V225h89.1V511.3z M655.625,0h-511.35
	C119.8,0,100,19.35,100,43.225v513.55C100,580.675,119.8,600,144.275,600H655.55C680,600,700,580.675,700,556.775V43.225
	C700,19.35,680,0,655.55,0H655.625z"/>
</svg>
